<svg xmlns="http://www.w3.org/2000/svg" width="30" height="30" viewBox="0 0 30 30">
  <g id="Group_37264" data-name="Group 37264" transform="translate(-284 -501)">
    <rect id="Rectangle_786" data-name="Rectangle 786" width="30" height="30" rx="6" transform="translate(284 501)" fill="#1bace3"/>
    <path id="Path_1212" data-name="Path 1212" d="M16,10c0,.553-.048,1-.6,1H11v4.4c0,.552-.447.6-1,.6s-1-.049-1-.6V11H4.6c-.552,0-.6-.447-.6-1s.049-1,.6-1H9V4.6c0-.553.447-.6,1-.6s1,.048,1,.6V9h4.4C15.952,9,16,9.447,16,10Z" transform="translate(289 506)" fill="#fff"/>
  </g>
</svg>
