<svg xmlns="http://www.w3.org/2000/svg" width="26" height="30.997" viewBox="0 0 26 30.997">
  <g id="Group_37285" data-name="Group 37285" transform="translate(-6.984 -1.985)">
    <path id="Path_1214" data-name="Path 1214" d="M15.567,33.8A1.935,1.935,0,0,1,13,32.325l-.34-1.914L9.378,34.979a.645.645,0,0,0,.69,1l4.064-1.085,1.095,4.064a.645.645,0,0,0,1.21.1l2.319-5.143-.815-.965Zm18.439,1.175L30.222,29.72l-.69.125-.445,2.479a1.945,1.945,0,0,1-.94,1.34,1.876,1.876,0,0,1-1.624.145l-2.324-.84,2.749,6.088a.642.642,0,0,0,1.21-.1l1.085-4.064,4.064,1.085A.648.648,0,0,0,34.006,34.979ZM21.05,14.9a6.458,6.458,0,1,0,6.458,6.458A6.468,6.468,0,0,0,21.05,14.9Zm2.689,10.217L21.05,23.162l-2.689,1.954,1.03-3.164L16.7,20h3.324l1.03-3.164L22.085,20h3.324l-2.689,1.954Z" transform="translate(-1.137 -6.46)" fill="#ac7428"/>
    <path id="Path_1215" data-name="Path 1215" d="M26.686,25.635l.6-3.369,3.364-.6a.641.641,0,0,0,.495-.855L29.985,17.6,32.6,15.388a.644.644,0,0,0,0-.985l-2.614-2.209,1.16-3.219a.646.646,0,0,0-.495-.855l-3.364-.6-.6-3.369a.67.67,0,0,0-.855-.495l-3.219,1.16L20.4,2.2a.666.666,0,0,0-.985,0L17.209,4.817,13.99,3.657a.647.647,0,0,0-.855.495l-.6,3.369-3.369.6a.64.64,0,0,0-.495.855l1.16,3.219L7.217,14.4a.635.635,0,0,0,0,.985l2.614,2.2-1.16,3.219a.636.636,0,0,0,.495.855l3.369.6.6,3.369a.653.653,0,0,0,.855.495l3.219-1.16,2.209,2.614a.646.646,0,0,0,.985,0l2.209-2.614,3.219,1.16A.643.643,0,0,0,26.686,25.635Zm-6.773-2.989A7.748,7.748,0,1,1,27.661,14.9,7.754,7.754,0,0,1,19.913,22.646Z" fill="#ed9620"/>
  </g>
</svg>
